<?xml version="1.0" encoding="utf-8"?>
<!-- Generator: Adobe Illustrator 22.0.0, SVG Export Plug-In . SVG Version: 6.00 Build 0)  -->
<svg version="1.2" baseProfile="tiny" xmlns="http://www.w3.org/2000/svg" xmlns:xlink="http://www.w3.org/1999/xlink" x="0px"
	 y="0px" viewBox="0 0 1000 1000" xml:space="preserve">
<g id="GUIDES">
</g>
<g id="Cup">
	<path fill-rule="evenodd" fill="#84C2D6" d="M790.8,554.8c-7.2,78.7-20.1,192.7-288.4,192.7c-269,0-282.8-129.4-291-192.7
		c-34.9-269.5-34.9-269.5-34.9-269.5s53.5,23.7,324.9,23.7c269,0,314-23.7,314-23.7S815.4,285.2,790.8,554.8z"/>
</g>
<g id="Layer_5">
	<path fill-rule="evenodd" fill="#FF9A9A" d="M500.4,234c242.6,0,296.3,32.9,296.3,32.9s-39.6,18.7-294.3,18.7
		c-258.7,0-308.5-18.7-308.5-18.7S249,234,500.4,234z"/>
</g>
<g id="Handle">
	<path fill-rule="evenodd" fill="#84C2D6" d="M936.5,335.7c24.9,7.3,37.7,37.3,13.7,120.8C911,593,876.8,581.2,823.8,593.8
		c-5.2,1.3-10.3-1.3-11.6-7.1c1.1-11.6,1.5-14.7,2.6-18.1c2.6-5,3.9-5,10.3-6.3c60.8-13.9,66.9-21.3,94.1-114.6
		c29.7-102-30.7-64.2-72.1-55.4c-3.9,1.3-11.6,0-11.6-3.8c1.3-13.9,1.4-14.4,3.6-29c1.3-3.8,5.4-6.1,10.6-7.8
		C874.4,344,911.6,328.5,936.5,335.7"/>
</g>
<g id="Plate">
	<path fill-rule="evenodd" fill="#84C2D6" stroke="#FFFFFF" stroke-width="3" stroke-miterlimit="10" d="M500.4,781.9
		c-511.5,0-328.7-123.2-328.7-123.2c2.8,44.1,61,180.3,328.7,180.3s325.9-136.2,328.7-180.3C829.1,658.7,1013.2,781.9,500.4,781.9z"
		/>
</g>
<g id="Layer_6">
</g>
</svg>
