<?xml version="1.0" encoding="utf-8"?>
<!-- Generator: Adobe Illustrator 22.0.0, SVG Export Plug-In . SVG Version: 6.00 Build 0)  -->
<svg version="1.2" baseProfile="tiny" xmlns="http://www.w3.org/2000/svg" xmlns:xlink="http://www.w3.org/1999/xlink" x="0px"
	 y="0px" viewBox="0 0 1000 800" xml:space="preserve">
<g id="BG" display="none">
	<rect x="1" display="inline" fill-rule="evenodd" fill="#FF9A9A" width="999" height="800"/>
</g>
<g id="GUIDES">
</g>
<g id="Plate">
	<path fill-rule="evenodd" fill="#FFFFFF" stroke="#FFFFFF" stroke-width="3" stroke-miterlimit="10" d="M500.5,668.5
		c-511.5,0-328.7-129.8-328.7-129.8c2.8,44.1,61,189.8,328.7,189.8s325.9-145.7,328.6-189.8C829.1,538.7,1013.3,668.5,500.5,668.5z"
		/>
</g>
<g id="Cup">
	<path fill-rule="evenodd" fill="#FFFFFF" d="M789,448c-9,72-5,179-287,179c-283,0-280-107-289-179c-33-263-36-285-36-285
		s53,39.9,324.4,39.9c269,0,323.6-39.9,323.6-39.9S822,185,789,448z"/>
</g>
<g id="Cup_top">
	<path fill-rule="evenodd" fill="#FFFFFF" d="M501,101c242.6,0,295.8,35.9,295.8,35.9S755.8,172,501,172c-258.7,0-306-36-306-36
		S249.6,101,501,101z"/>
</g>
<g id="Handle">
	<path fill-rule="evenodd" fill="#FFFFFF" d="M936.5,215.7c24.9,7.3,37.7,37.3,13.7,120.8C911,473,876.8,461.2,823.8,473.8
		c-5.2,1.3-10.3-1.3-11.6-7.1c1.1-11.6,1.5-14.7,2.6-18.1c2.6-5,3.9-5,10.3-6.3c60.8-13.9,66.9-21.3,94.1-114.6
		c29.7-102-30.7-64.2-72.1-55.4c-3.9,1.3-11.6,0-11.6-3.8c1.3-13.9,1.4-14.4,3.6-29c1.3-3.8,5.4-6.1,10.6-7.8
		C874.4,224,911.6,208.5,936.5,215.7"/>
</g>
</svg>
