<svg xmlns="http://www.w3.org/2000/svg" viewBox="0 0 826.04304 629">
  <title>fsc-logo</title>
  <path d="M738.2519,606.85315C668.32,734.88238,544.91137,775.0069,468.52418,775.0069c-79.61481,0-210.95034-24.70475-297.25885-174.609-81.76656-142.01562-56.79379-294.95535-56.79379-294.95535S170.886,457.80532,462.928,457.80532C773,457.80532,799.501,315.44255,799.501,315.44255S823.86651,450.11257,738.2519,606.85315Z" transform="translate(-110.88059 -146.0069)" style="fill: #53c1cc;fill-rule: evenodd"/>
  <g>
    <path d="M936.92363,286.95038s-7.35366-64.64252-71.56186-48.17892c-51.22865,13.13551-65.46121,62.1168-65.46121,62.1168s-5.26409-27.62107-8.0622-35.76392c-8.6363-25.1327,5.51659-63.87331,51.29839-70.91537C934.60236,180.13991,936.878,287.17307,936.92363,286.95038Z" transform="translate(-110.88059 -146.0069)" style="fill: #53c1cc;fill-rule: evenodd"/>
    <path d="M879.3219,374.387c-43.08048,27.53919-69.33126,55.7337-69.33126,55.7337s3.58638-28.7993,4.36462-51.82048c.4729-13.9889,37.54-32.32684,62.10342-47.51553,40.50982-25.04908,36.50662-65.32215,36.50662-65.32215s16.44039,20.42887,16.39547,43.45909C929.32125,329.1797,925.4988,344.86843,879.3219,374.387Z" transform="translate(-110.88059 -146.0069)" style="fill: #53c1cc;fill-rule: evenodd"/>
  </g>
  <path d="M777.63016,280.4379c0,78.4233-119.63016,147.51636-312.75339,147.51636-176.75382,0-333.96359-69.09306-333.96359-147.51636,0-66.431,149.20977-134.431,325.96359-134.431C660,146.0069,777.63016,208.0069,777.63016,280.4379Z" transform="translate(-110.88059 -146.0069)" style="fill: #c59a7b;fill-rule: evenodd"/>
  <g>
    <path d="M534.45869,248.248c-24.44985,18.59581-42.62721,40.792-59.265,62.2193-28.13436-22.37962-49.08341-29.24833-100.82746-64.82805C324,211.0069,414.44171,202.866,463.15423,245.5089,501.9786,192.58559,588.58836,207.07861,534.45869,248.248Z" transform="translate(-110.88059 -146.0069)" style="fill: #efe0d3;fill-rule: evenodd"/>
    <path d="M500.23716,199.58228c-12.97434,11.21377-29.75684,21.92337-38.7696,34.48665-15.138-13.04206-28.40845-17.13169-58.69626-34.57-33.45134-19.25972,23.93916-38.75231,50.1427-13.893C468.55872,158.96533,531.56263,172.50754,500.23716,199.58228Z" transform="translate(-110.88059 -146.0069)" style="fill: #efe0d3;fill-rule: evenodd"/>
  </g>
  <path d="M281.56876,225.05381c-3.39318-1.82554-60.83537,10.59509-72.147,42.75093-10.74252,30.53806,28.4568,72.39527,97.39686,98.537,60.7845,23.04916,135.01923,19.88712,163.70751,27.98281,6.61079,1.86554,15.5836,14.0554,15.5836,14.0554s4.82025-14.43906,13.84581-17.43623c8.95125-2.9725,46.19407-8.99284,101.865-26.75713C695.41721,334.32042,759.879,290.62929,696.28286,243.327c-38.31063-28.4951-67.8602-30.78047-69.799-29.39111-4.90573,3.51554,23.94135,4.35839,52.25216,31.063,60.377,56.95148-28.05957,81.50427-89.026,102.51545-63.86862,22.01138-77.88911,17.755-92.87148,25.76623-2.98165,1.59432-13.44236,10.65-13.44236,10.65s-9.84487-7.10953-18.35728-9.25079c-19.383-4.87573-59.95534-3.56945-109.20715-14.95655-60.54245-13.99752-128.79755-44.66372-125.42644-89.43729C232.88508,237.35107,287.65759,228.3296,281.56876,225.05381Z" transform="translate(-110.88059 -146.0069)" style="fill: #efe0d3;fill-rule: evenodd"/>
  <path d="M476.57945,321.43945S486,305.0069,502.5,294.0069c33.5019-22.3346,47.00138-25.33965,62-35.5,15.5-10.5,28.50091-29.3904,28.50091-29.3904s18.3946,29.6207.23044,62.11837c-8.80614,15.75515-25.42108,27.79892-50.91919,39.51785s-44.97553,18.67691-50.26759,28.036S483.359,373.223,483.359,373.223a181.86111,181.86111,0,0,1-16.40061-14.00571c-8.1926-7.94253-26.43093-9.80212-51.95694-13.69337s-59.874-18.2026-78.66465-38.17722-13.91994-67.75532-13.91994-67.75532,17.16465,27.02191,61.70444,38.0986S430.7,291.76708,447.66675,300.43165A120.629,120.629,0,0,1,476.57945,321.43945Z" transform="translate(-110.88059 -146.0069)" style="fill: #efe0d3;fill-rule: evenodd"/>
</svg>
